<svg version="1.1" id="Layer_1" xmlns="http://www.w3.org/2000/svg" xmlns:xlink="http://www.w3.org/1999/xlink" x="0px" y="0px" viewBox="0 0 472.12 472.12" style="width: 1em; height: 1em; vertical-align: middle; fill: currentcolor; overflow: hidden; font-size: 32px;" xml:space="preserve" width="32" height="32">
<g id="XMLID_4_">
	<path style="fill:#FFCD00;" d="M437.12,121.06c19.3,0,35,15.7,35,35s-15.7,35-35,35H262.1v-70H437.12z" fill="#ffffff"></path>
	<path style="fill:#FFCD00;" d="M341.45,201.06c19.3,0,35,15.7,35,35s-15.7,35-35,35H262.1v-70H341.45z" fill="#ffffff"></path>
	<path style="fill:#FFCD00;" d="M303.57,281.06c19.3,0,35,15.7,35,35s-15.7,35-35,35H262.1v-70H303.57z" fill="#ffffff"></path>
	<path style="fill:#FFCD00;" d="M262.1,361.06c19.3,0,35,15.7,35,35s-15.7,35-35,35V361.06z" fill="#ffffff"></path>
	<path style="fill:#FFCD00;" d="M245.08,41.06c19.3,0,35,15.7,35,35s-15.7,35-35,35h-91.43v-70H245.08z" fill="#ffffff"></path>
	<path style="fill:#FFDA44;" d="M153.65,121.06v-80h-26.08C57.23,41.06,0,98.29,0,168.63v134.86c0,70.34,57.23,127.57,127.57,127.57
		H262.1v-310H153.65z" fill="#ffffff"></path>
</g>
<g>
</g>
<g>
</g>
<g>
</g>
<g>
</g>
<g>
</g>
<g>
</g>
<g>
</g>
<g>
</g>
<g>
</g>
<g>
</g>
<g>
</g>
<g>
</g>
<g>
</g>
<g>
</g>
<g>
</g>
</svg>